<?xml version="1.0" standalone="no"?>
<!DOCTYPE svg PUBLIC "-//W3C//DTD SVG 20010904//EN"
 "http://www.w3.org/TR/2001/REC-SVG-20010904/DTD/svg10.dtd">
<svg version="1.0" xmlns="http://www.w3.org/2000/svg"
 width="594.000000pt" height="522.000000pt" viewBox="0 0 594.000000 522.000000"
 preserveAspectRatio="xMidYMid meet">

<g transform="translate(0.000000,522.000000) scale(0.100000,-0.100000)"
fill="#000000" stroke="none">
<path d="M0 2610 l0 -2610 2970 0 2970 0 0 2610 0 2610 -2970 0 -2970 0 0
-2610z m5838 2532 c10 -7 12 -519 10 -2528 l-3 -2519 -2850 -3 c-1567 -1
-2860 0 -2873 3 l-22 5 0 2513 c0 1941 3 2516 12 2525 9 9 659 12 2863 12
1567 0 2856 -4 2863 -8z"/>
<path d="M1987 4603 c-15 -15 -5 -29 26 -38 25 -8 32 -15 32 -35 0 -20 6 -26
30 -31 17 -4 38 -10 48 -14 13 -5 17 -2 17 13 0 11 -7 25 -15 32 -9 7 -13 21
-9 34 4 17 -1 25 -21 34 -28 13 -97 16 -108 5z m92 -39 c-16 -19 -29 -17 -29
4 0 26 11 34 27 21 10 -9 10 -15 2 -25z"/>
<path d="M2256 4603 c-4 -4 -25 -6 -46 -4 -48 3 -77 -10 -40 -19 30 -7 38 -35
16 -59 -18 -20 -12 -31 16 -31 11 0 18 7 18 19 0 11 14 28 32 40 32 20 33 20
65 1 39 -23 48 -13 27 29 -13 25 -22 31 -48 31 -18 0 -36 -3 -40 -7z"/>
<path d="M2433 4602 c-55 -3 -63 -6 -63 -22 0 -23 10 -26 28 -8 10 10 15 10
22 -2 8 -12 13 -13 30 -2 18 11 20 10 20 -8 0 -24 15 -25 54 -5 15 8 37 15 48
15 26 0 18 -24 -10 -28 -15 -2 -22 -10 -22 -27 0 -19 4 -22 23 -17 12 3 27 12
33 20 8 12 13 10 27 -12 11 -16 27 -26 41 -26 23 0 24 2 13 30 -7 18 -19 30
-29 30 -19 0 -38 28 -31 48 3 6 -1 12 -9 13 -48 3 -122 4 -175 1z"/>
<path d="M2675 4600 c-42 -5 -39 -13 8 -24 15 -3 27 -13 27 -21 0 -20 17 -28
37 -17 11 7 23 6 34 -1 13 -8 27 -6 58 8 41 18 41 18 65 -4 l24 -23 4 28 c2
23 9 30 31 32 27 3 29 2 22 -27 -5 -24 -3 -31 9 -31 9 0 16 6 16 13 0 7 6 22
14 32 13 18 16 19 33 4 27 -24 75 -30 95 -12 16 14 20 14 41 0 25 -16 88 -11
94 8 10 32 -14 35 -293 37 -153 2 -297 1 -319 -2z"/>
<path d="M1920 4553 c0 -17 7 -36 15 -43 12 -10 15 -10 15 0 0 8 7 22 17 32
15 17 15 18 -3 18 -11 0 -25 5 -32 12 -9 9 -12 5 -12 -19z"/>
<path d="M3325 4534 c0 -45 2 -48 33 -56 20 -5 40 -5 52 2 16 8 23 6 37 -10
10 -11 25 -20 35 -20 10 0 27 -13 40 -30 12 -16 31 -33 42 -36 12 -4 37 -20
56 -35 19 -16 38 -29 42 -29 14 0 58 -48 58 -64 0 -9 7 -16 15 -16 8 0 14 4
13 9 -2 5 2 8 7 7 6 0 9 -11 7 -23 -1 -12 2 -24 8 -28 6 -3 8 -10 5 -15 -10
-16 15 -52 31 -46 12 5 14 -1 9 -27 -4 -20 0 -49 8 -72 24 -63 29 -96 17 -110
-14 -16 -4 -56 13 -52 20 4 18 -32 -3 -53 -14 -14 -19 -25 -12 -32 6 -6 15 0
26 16 18 28 56 35 56 11 0 -8 4 -15 10 -15 18 0 30 39 30 102 0 64 -11 88 -39
88 -10 0 -12 -3 -4 -11 13 -13 4 -61 -11 -56 -6 2 -13 12 -15 23 -2 10 -10 24
-19 30 -14 10 -13 15 7 43 25 35 25 35 52 21 10 -6 19 -8 19 -4 0 25 -36 123
-51 140 -11 11 -19 27 -19 35 0 19 -52 93 -116 166 -60 68 -122 106 -157 98
-21 -6 -26 -3 -29 16 -2 17 -13 26 -39 34 -20 5 -43 16 -52 23 -9 7 -49 16
-89 19 l-74 6 1 -49z m355 -117 c0 -7 -6 -22 -14 -33 -14 -18 -15 -18 -21 -1
-4 9 -5 24 -1 32 7 18 36 20 36 2z"/>
<path d="M2401 4516 c-6 -7 -22 -11 -36 -8 -15 2 -25 0 -25 -7 0 -6 19 -11 45
-11 33 0 45 4 45 14 0 21 -16 28 -29 12z"/>
<path d="M3070 4500 c0 -5 5 -10 10 -10 6 0 10 5 10 10 0 6 -4 10 -10 10 -5 0
-10 -4 -10 -10z"/>
<path d="M2596 4423 c-4 -4 -19 -7 -34 -8 -20 0 -28 -6 -30 -22 -4 -30 -37
-39 -67 -19 -24 16 -25 15 -25 -3 0 -37 -26 -35 -48 4 -10 17 -11 12 -12 -31
0 -59 8 -72 28 -43 10 15 17 17 27 9 19 -16 7 -40 -20 -40 -31 0 -38 -23 -17
-60 16 -29 16 -31 0 -41 -23 -13 -25 -79 -4 -79 26 0 30 -23 8 -40 -17 -14
-22 -30 -23 -81 -2 -35 1 -74 5 -86 4 -12 2 -32 -4 -43 -6 -12 -9 -29 -5 -38
4 -9 8 -98 10 -197 4 -213 2 -195 19 -195 24 0 38 26 21 40 -20 17 -19 36 5
60 37 37 69 18 34 -21 -20 -22 -11 -54 12 -45 12 5 14 1 9 -16 -6 -18 -4 -20
16 -15 13 4 30 7 37 7 9 0 11 7 7 20 -4 13 -1 22 9 26 9 4 16 18 16 34 0 25
-4 29 -27 27 -20 -2 -28 3 -31 18 -2 11 -10 25 -19 32 -11 8 -12 16 -4 30 11
21 14 245 5 358 -6 83 -6 74 3 205 8 104 8 105 38 119 17 8 66 16 110 18 96 4
43 4 392 0 227 -3 290 -1 286 9 -6 17 16 29 29 16 8 -8 8 -15 -1 -25 -9 -12 0
-19 56 -42 66 -26 191 -118 192 -142 1 -6 12 -35 26 -65 16 -34 25 -71 25
-103 0 -27 4 -56 9 -64 13 -20 -65 -189 -103 -225 -40 -37 -152 -106 -172
-106 -25 0 -84 -40 -84 -56 0 -20 17 -18 29 4 8 14 12 15 23 4 10 -10 10 -17
0 -32 -10 -16 -9 -21 8 -30 18 -9 20 -7 21 17 1 15 2 33 4 38 1 6 3 14 3 19 4
17 32 -17 32 -38 0 -18 6 -21 40 -21 39 0 40 0 40 37 0 41 15 59 23 28 3 -12
14 -20 25 -20 30 0 82 48 82 75 0 17 4 22 18 18 12 -3 22 4 30 21 6 14 16 26
22 26 5 0 10 20 10 45 0 31 5 47 17 54 10 5 15 13 11 17 -5 4 -3 13 3 21 9 10
7 13 -11 13 -19 0 -21 4 -16 26 5 18 2 32 -10 45 -17 18 -16 21 10 48 24 25
26 31 15 49 -12 18 -10 24 9 45 40 42 23 81 -23 51 -18 -12 -23 -20 -16 -27
15 -15 14 -37 -3 -37 -7 0 -19 7 -26 15 -10 12 -10 18 1 31 11 14 10 19 -9 34
-24 20 -30 50 -9 50 7 1 5 6 -5 14 -10 7 -18 18 -18 25 0 6 -11 11 -24 11 -30
0 -44 19 -25 32 12 7 11 8 -1 7 -8 -2 -29 6 -46 16 -22 13 -31 27 -32 47 -1
28 -30 77 -46 78 -5 0 -3 -7 4 -15 10 -12 10 -19 2 -27 -15 -15 -51 28 -52 60
0 26 -15 29 -28 6 -8 -14 -14 -15 -46 -3 -28 10 -39 10 -48 1 -15 -15 -28 -16
-28 -2 0 6 7 10 15 10 8 0 15 7 15 15 0 11 -11 15 -40 15 l-40 0 17 -35 c15
-32 16 -37 1 -51 -18 -18 -38 -11 -38 12 0 8 -4 14 -10 14 -5 0 -7 -7 -3 -17
6 -14 1 -15 -33 -8 -58 11 -118 15 -217 14 l-89 -1 7 31 c6 29 5 31 -24 31
-16 0 -33 -4 -36 -10 -3 -5 -17 -10 -29 -10 -15 0 -26 -7 -29 -18 -2 -11 -16
-21 -33 -24 -32 -6 -143 -2 -150 5 -12 11 12 38 39 45 17 4 32 13 35 20 4 13
-10 16 -22 5z m-142 -257 c-4 -24 -10 -34 -16 -28 -5 5 -6 26 -2 46 4 24 10
34 16 28 5 -5 6 -26 2 -46z m1202 -473 c-10 -10 -19 5 -10 18 6 11 8 11 12 0
2 -7 1 -15 -2 -18z m-1206 -30 c0 -5 -5 -15 -10 -23 -7 -11 -12 -12 -21 -3 -6
6 -8 16 -5 22 8 12 36 15 36 4z m20 -98 c0 -25 -23 -35 -35 -15 -10 16 2 40
20 40 9 0 15 -9 15 -25z m1120 5 c0 -5 -4 -10 -10 -10 -5 0 -10 5 -10 10 0 6
5 10 10 10 6 0 10 -4 10 -10z"/>
<path d="M1922 4409 c2 -6 8 -10 13 -10 5 0 11 4 13 10 2 6 -4 11 -13 11 -9 0
-15 -5 -13 -11z"/>
<path d="M2234 4409 c-12 -20 -98 -69 -121 -69 -25 0 -46 30 -37 54 8 21 -6
20 -22 -1 -11 -15 -16 -16 -33 -5 -18 10 -21 10 -21 -2 0 -21 -20 -30 -33 -17
-17 17 -24 13 -32 -16 -9 -38 14 -48 115 -48 54 -1 96 -6 115 -15 28 -14 30
-19 33 -82 2 -43 8 -71 17 -78 19 -16 19 -30 0 -30 -12 0 -15 -47 -15 -340 0
-329 1 -340 20 -340 10 0 22 -5 26 -12 5 -8 10 -6 19 5 7 10 16 12 25 7 18
-11 5 -39 -17 -38 -10 1 -30 -1 -45 -5 l-28 -7 0 -310 c1 -380 3 -370 -96
-362 -55 4 -68 2 -76 -12 -9 -15 -11 -15 -39 1 -42 25 -63 9 -67 -51 -2 -25 1
-46 5 -47 4 -1 92 -3 195 -4 l187 -4 10 36 c6 20 8 40 4 45 -3 6 -5 52 -4 105
1 89 -1 96 -25 118 l-26 25 24 9 c22 8 24 15 25 80 1 57 -2 73 -15 80 -16 9
-16 10 1 16 21 9 22 29 0 65 -14 25 -15 31 -2 46 10 13 14 48 14 136 l1 118
-26 0 c-24 0 -50 16 -50 30 0 4 11 12 25 18 32 15 31 24 -3 59 -16 15 -31 36
-35 47 -6 16 -3 18 20 14 16 -3 35 -8 44 -12 13 -6 18 0 21 29 4 38 -11 60
-41 60 -9 0 -16 7 -16 15 0 14 12 17 45 9 22 -6 28 322 7 355 -13 19 -13 25
-1 41 20 27 18 65 -3 65 -17 1 -17 1 0 14 24 19 21 49 -8 76 -31 29 -31 39 0
69 27 25 25 41 -5 41 -10 0 -20 7 -24 15 -6 18 -22 20 -32 4z m-24 -89 c0 -5
-7 -10 -15 -10 -8 0 -15 5 -15 10 0 6 7 10 15 10 8 0 15 -4 15 -10z m84 -79
c3 -4 3 -11 0 -14 -8 -8 -34 3 -34 14 0 11 27 12 34 0z m-24 -81 c-10 -19 -40
-27 -53 -13 -12 11 14 33 40 33 21 0 22 -3 13 -20z m0 -966 c0 -8 -5 -12 -10
-9 -6 4 -8 11 -5 16 9 14 15 11 15 -7z m-172 -556 c21 -21 15 -40 -10 -32 -30
9 -32 10 -25 29 8 18 19 19 35 3z"/>
<path d="M2662 4403 c2 -10 10 -18 18 -18 22 0 18 29 -3 33 -14 3 -18 -1 -15
-15z"/>
<path d="M2905 4410 c-3 -5 3 -10 15 -10 12 0 18 5 15 10 -3 6 -10 10 -15 10
-5 0 -12 -4 -15 -10z"/>
<path d="M3082 4388 c3 -7 13 -15 22 -16 12 -3 17 1 14 10 -3 7 -13 15 -22 16
-12 3 -17 -1 -14 -10z"/>
<path d="M3527 4332 c-3 -4 3 -18 14 -31 16 -20 22 -21 35 -10 14 11 13 15 -8
31 -25 19 -34 22 -41 10z"/>
<path d="M3620 4249 c0 -5 5 -7 10 -4 6 3 10 8 10 11 0 2 -4 4 -10 4 -5 0 -10
-5 -10 -11z"/>
<path d="M3686 4173 c-11 -11 -6 -23 9 -23 8 0 15 4 15 9 0 13 -16 22 -24 14z"/>
<path d="M3715 4130 c-3 -5 -15 -10 -26 -10 -10 0 -19 -7 -19 -15 0 -17 16
-20 25 -5 3 6 15 10 26 10 10 0 19 4 19 9 0 15 -18 23 -25 11z"/>
<path d="M3850 3773 c-8 -2 -21 -7 -29 -9 -11 -4 -9 -9 7 -25 46 -43 32 -109
-24 -109 -13 0 -26 -4 -29 -10 -3 -5 -15 -10 -26 -10 -10 0 -19 -7 -19 -15 0
-12 4 -13 19 -5 28 14 51 12 51 -5 0 -16 -67 -48 -82 -39 -10 6 -38 -13 -38
-27 0 -5 6 -9 14 -9 26 0 29 -21 5 -46 -38 -40 -82 -27 -58 17 l11 22 -31 -22
c-37 -26 -38 -37 -9 -60 20 -17 18 -48 -3 -35 -14 8 -70 -6 -64 -17 3 -4 -1
-22 -10 -39 -19 -37 -37 -29 -55 26 -13 38 -8 37 -120 7 -52 -14 -88 -33 -63
-33 7 0 24 -5 39 -10 25 -10 26 -12 12 -26 -9 -9 -30 -17 -47 -19 -16 -1 -36
-6 -43 -12 -7 -5 -21 -13 -30 -16 -10 -4 -18 -16 -18 -27 0 -21 15 -27 25 -10
5 8 11 8 20 0 7 -6 17 -10 21 -9 30 5 36 -2 30 -35 -6 -29 -3 -37 14 -46 20
-11 20 -13 6 -29 -14 -16 -13 -22 12 -71 15 -29 35 -55 44 -58 9 -2 21 -17 27
-32 5 -16 27 -51 48 -79 21 -27 49 -66 63 -86 14 -21 39 -54 56 -74 17 -20 39
-50 48 -68 21 -41 41 -47 161 -43 55 2 114 3 130 2 124 -5 127 -3 123 68 l-3
45 -65 3 c-36 1 -107 5 -158 10 l-93 7 -37 41 c-20 23 -53 67 -72 98 -35 56
-50 68 -50 41 0 -8 -7 -15 -15 -15 -18 0 -19 12 -2 29 10 10 9 15 -4 24 -8 7
-23 32 -33 56 -9 24 -35 65 -58 90 -49 56 -92 127 -84 140 9 14 78 48 116 56
67 14 207 95 267 153 73 73 125 140 117 153 -3 5 -1 16 5 23 7 8 11 18 10 22
-3 19 2 31 19 50 24 25 46 80 37 93 -6 11 -58 14 -85 4z m-32 -240 c2 -8 -6
-13 -21 -13 -17 0 -26 -7 -30 -22 -5 -18 -8 -19 -21 -8 -22 18 -20 27 12 44
32 17 54 16 60 -1z m-398 -199 c0 -8 5 -14 11 -14 5 0 7 -5 4 -10 -4 -6 -14
-1 -25 12 -10 13 -16 26 -13 31 7 11 23 -2 23 -19z m10 -318 c0 -3 -4 -8 -10
-11 -5 -3 -10 -1 -10 4 0 6 5 11 10 11 6 0 10 -2 10 -4z m180 -296 c0 -5 -4
-10 -10 -10 -5 0 -10 5 -10 10 0 6 5 10 10 10 6 0 10 -4 10 -10z m265 -90 c3
-5 -1 -10 -9 -10 -9 0 -16 5 -16 10 0 6 4 10 9 10 6 0 13 -4 16 -10z"/>
<path d="M3020 3531 c-43 -9 -62 -19 -55 -31 4 -6 14 -5 25 2 28 18 74 -5 65
-32 -8 -26 11 -60 35 -60 14 0 18 7 18 33 0 17 0 38 1 45 1 17 26 15 41 -3 14
-17 56 -20 65 -6 3 5 19 12 35 16 17 4 30 13 30 21 0 11 -20 14 -99 14 -55 0
-105 2 -113 4 -7 2 -29 1 -48 -3z"/>
<path d="M2618 3512 c-7 -32 4 -60 27 -70 16 -7 26 -7 33 0 15 15 43 2 36 -17
-6 -14 2 -16 51 -13 60 3 87 24 46 35 -12 3 -21 10 -21 15 0 6 7 7 16 4 9 -3
22 -6 30 -6 8 0 26 -11 40 -25 22 -22 25 -23 30 -7 3 9 10 24 15 32 37 60 26
66 -150 68 -135 2 -150 0 -153 -16z m252 -7 c0 -8 -7 -15 -15 -15 -9 0 -12 6
-9 15 4 8 10 15 15 15 5 0 9 -7 9 -15z m-215 -14 c3 -5 1 -12 -4 -15 -5 -3
-11 1 -15 9 -6 16 9 21 19 6z"/>
<path d="M3240 3431 c0 -6 5 -13 10 -16 6 -3 10 1 10 9 0 9 -4 16 -10 16 -5 0
-10 -4 -10 -9z"/>
<path d="M3522 3418 c-16 -16 -15 -28 2 -28 7 0 16 9 19 20 6 23 -3 26 -21 8z"/>
<path d="M2698 3349 c-16 -9 -16 -12 -3 -33 12 -18 13 -29 5 -51 -6 -15 -8
-30 -5 -33 2 -3 52 -6 109 -8 182 -4 207 -14 238 -101 12 -32 15 -34 45 -30
40 7 51 -7 28 -33 -17 -19 -16 -21 17 -62 19 -24 47 -64 62 -90 15 -27 41 -57
57 -69 16 -11 29 -28 29 -36 0 -9 7 -25 16 -34 15 -17 15 -20 0 -44 -13 -20
-24 -25 -60 -25 -54 0 -75 -20 -57 -53 7 -13 11 -27 10 -33 -7 -36 46 -52 94
-27 20 10 32 11 47 3 12 -6 63 -10 120 -8 114 2 117 5 72 71 -16 23 -41 61
-56 85 -22 35 -30 41 -41 32 -10 -9 -19 -8 -35 0 -23 12 -17 26 13 32 16 2 11
11 -25 48 -25 25 -51 59 -60 75 -61 122 -107 187 -128 180 -21 -7 -44 19 -36
40 8 23 -53 104 -84 111 -14 3 -35 10 -48 15 -13 5 -34 9 -49 9 -23 0 -25 2
-19 35 7 33 -5 48 -19 25 -3 -5 -25 -7 -50 -3 -37 5 -45 3 -45 -10 0 -9 9 -19
21 -22 33 -11 16 -30 -27 -30 -40 0 -45 8 -29 48 12 28 -20 20 -34 -9 -15 -34
-36 -25 -35 15 2 32 -8 38 -38 20z m342 -124 c0 -8 -4 -15 -10 -15 -5 0 -10 7
-10 15 0 8 5 15 10 15 6 0 10 -7 10 -15z m40 -35 c0 -5 -5 -10 -11 -10 -5 0
-7 5 -4 10 3 6 8 10 11 10 2 0 4 -4 4 -10z m154 -219 c3 -4 3 -11 0 -14 -8 -8
-34 3 -34 14 0 11 27 12 34 0z m136 -141 c0 -5 -5 -12 -11 -16 -14 -8 -33 11
-25 25 7 11 36 4 36 -9z m5 -200 c3 -5 1 -10 -4 -10 -6 0 -11 5 -11 10 0 6 2
10 4 10 3 0 8 -4 11 -10z"/>
<path d="M2420 3340 c0 -5 8 -13 17 -19 27 -14 7 -26 -22 -13 -14 6 -25 8 -25
3 0 -5 6 -11 14 -14 7 -3 16 -28 20 -56 7 -56 20 -72 31 -38 7 20 8 20 12 3 3
-11 -2 -23 -11 -28 -9 -5 -16 -16 -16 -23 0 -8 -7 -15 -16 -15 -10 0 -14 5
-10 15 3 9 -3 24 -14 35 -20 20 -20 20 -20 -20 0 -29 5 -42 20 -50 22 -12 27
-49 8 -69 -11 -10 -10 -15 5 -25 25 -19 22 -46 -7 -46 -21 0 -24 -5 -28 -51
-3 -28 -2 -68 3 -88 9 -43 10 -95 3 -175 -4 -36 -2 -62 5 -69 20 -20 364 -29
381 -10 4 4 10 25 13 45 9 60 -6 68 -132 68 -96 0 -110 2 -127 21 -16 18 -24
55 -24 109 0 8 0 85 0 170 0 163 7 214 31 217 112 15 114 15 90 24 -18 7 -22
14 -16 32 14 47 17 67 9 67 -15 0 -30 -14 -37 -32 -4 -12 -17 -18 -40 -18 -18
0 -38 -5 -45 -12 -18 -18 -40 6 -23 25 17 21 3 47 -25 47 -13 0 -24 -4 -24
-10z"/>
<path d="M3225 3330 c-10 -11 -24 -20 -32 -20 -17 0 -17 -14 0 -28 10 -8 20
-5 40 14 15 14 27 29 27 34 0 19 -18 19 -35 0z"/>
<path d="M2530 3330 c0 -5 5 -10 10 -10 6 0 10 5 10 10 0 6 -4 10 -10 10 -5 0
-10 -4 -10 -10z"/>
<path d="M1943 2510 c-19 -8 -23 -17 -23 -54 0 -33 5 -48 18 -54 9 -4 198 -8
420 -8 441 1 422 -2 422 61 0 62 13 60 -347 57 -180 -1 -337 -3 -348 -4 -11
-1 -42 2 -70 5 -27 4 -60 2 -72 -3z m92 -31 c4 -5 18 -14 31 -19 27 -11 30
-22 10 -40 -12 -9 -22 -7 -48 12 -18 12 -35 24 -37 25 -2 1 -1 9 2 18 7 17 33
20 42 4z m215 -29 c0 -5 -7 -10 -15 -10 -8 0 -15 5 -15 10 0 6 7 10 15 10 8 0
15 -4 15 -10z"/>
<path d="M3186 2505 c-17 -17 -21 -61 -8 -82 4 -6 19 -16 34 -22 30 -11 797
-9 816 3 15 9 16 61 2 86 -9 17 -26 19 -228 20 -198 2 -392 1 -482 0 -19 0
-54 2 -76 5 -31 4 -46 2 -58 -10z m194 -26 c0 -5 -7 -9 -15 -9 -8 0 -15 7 -15
15 0 9 6 12 15 9 8 -4 15 -10 15 -15z m95 -19 c-3 -5 -13 -10 -21 -10 -8 0
-14 5 -14 10 0 6 9 10 21 10 11 0 17 -4 14 -10z m215 0 c0 -5 -4 -10 -9 -10
-6 0 -13 5 -16 10 -3 6 1 10 9 10 9 0 16 -4 16 -10z m292 -22 c-15 -15 -26 -4
-18 18 5 13 9 15 18 6 9 -9 9 -15 0 -24z m-344 -6 c2 -12 -1 -22 -6 -22 -15 0
-34 28 -27 40 10 17 30 6 33 -18z"/>
<path d="M2771 1771 c-19 -5 -24 -14 -26 -44 -2 -36 7 -48 20 -27 3 6 16 10
28 10 13 0 30 9 40 20 14 17 21 19 38 9 17 -9 23 -8 30 2 6 11 9 10 15 -4 3
-9 15 -17 25 -17 10 0 19 -5 19 -11 0 -6 5 -9 12 -7 6 2 30 -6 52 -19 23 -13
56 -30 74 -38 17 -8 32 -22 32 -30 0 -20 -49 -31 -69 -16 -45 33 -109 55 -161
54 -80 0 -140 -13 -133 -28 3 -9 -2 -12 -15 -8 -14 3 -27 -5 -47 -31 -39 -51
-39 -128 -1 -186 25 -37 31 -41 57 -36 30 6 37 -2 18 -21 -13 -13 13 -32 116
-88 99 -54 195 -116 195 -126 0 -5 11 -14 24 -21 23 -10 24 -15 19 -62 -8 -78
-40 -187 -60 -201 -15 -11 -15 -15 -4 -29 8 -9 9 -16 3 -16 -6 0 -12 6 -15 13
-3 9 -20 7 -68 -10 -99 -34 -152 -38 -222 -18 -95 27 -148 56 -145 80 3 18 9
20 63 17 50 -3 63 -8 78 -28 17 -22 26 -24 98 -24 91 0 117 10 171 67 36 38
46 74 40 149 -3 37 -79 111 -150 147 -175 87 -251 144 -286 214 -32 63 -12
179 40 231 25 25 34 43 34 68 0 50 -22 44 -89 -23 -71 -72 -97 -142 -87 -236
11 -112 65 -169 245 -263 53 -27 116 -70 143 -96 42 -41 48 -52 48 -87 0 -48
-22 -75 -73 -89 -49 -14 -113 1 -198 44 l-73 36 -28 -33 c-66 -76 -74 -136
-25 -172 61 -45 205 -87 300 -87 79 0 185 39 244 89 64 54 111 148 91 181 -11
17 -11 22 1 29 21 13 15 87 -10 135 -42 82 -126 150 -281 225 -108 52 -148 91
-148 141 0 55 27 75 104 75 52 0 74 -6 138 -38 89 -45 106 -43 148 14 60 83
48 128 -42 171 -96 47 -266 70 -347 49z m259 -191 c0 -5 -5 -10 -11 -10 -5 0
-7 5 -4 10 3 6 8 10 11 10 2 0 4 -4 4 -10z m-310 -70 c0 -5 -4 -10 -10 -10 -5
0 -10 5 -10 10 0 6 5 10 10 10 6 0 10 -4 10 -10z m468 -459 c3 -8 -1 -12 -9
-9 -7 2 -15 10 -17 17 -3 8 1 12 9 9 7 -2 15 -10 17 -17z m-28 -142 c0 -5 -7
-9 -15 -9 -15 0 -20 12 -9 23 8 8 24 -1 24 -14z m-154 -166 c-10 -10 -19 5
-10 18 6 11 8 11 12 0 2 -7 1 -15 -2 -18z"/>
<path d="M3805 1684 c-25 -53 -45 -99 -45 -101 0 -3 -29 -64 -64 -137 -120
-245 -266 -558 -266 -570 0 -6 -6 -20 -13 -31 -20 -30 -40 -101 -33 -114 10
-16 178 -14 199 2 9 6 31 39 49 72 l34 60 209 0 210 0 25 -50 c38 -75 43 -82
67 -89 15 -5 27 -1 41 15 l20 21 12 -22 c10 -18 19 -21 63 -18 46 3 52 6 55
27 4 22 -102 258 -122 272 -4 4 -17 4 -27 2 -14 -4 -19 0 -19 16 0 12 6 21 15
21 8 0 15 2 15 4 0 3 -26 61 -59 129 -32 68 -89 196 -127 283 -107 250 -134
298 -167 302 -25 3 -30 -3 -72 -94z m99 -95 c14 -17 26 -38 26 -46 0 -9 12
-41 26 -72 14 -31 41 -87 59 -126 18 -38 43 -92 55 -120 12 -27 45 -97 72
-155 100 -209 109 -231 106 -248 -8 -40 -34 -21 -72 53 l-39 75 -267 0 -268 0
-21 -49 c-11 -27 -21 -54 -21 -59 0 -5 -12 -17 -26 -27 -35 -23 -53 -7 -35 32
9 19 9 29 2 31 -16 5 -13 22 4 22 8 0 15 7 15 16 0 9 11 29 25 45 13 16 27 45
31 64 3 19 10 35 15 35 8 0 34 51 142 279 19 40 19 44 4 53 -10 5 -17 18 -17
28 0 22 20 26 36 10 12 -12 64 58 64 84 0 8 5 18 10 21 6 4 8 15 5 25 -5 17
19 57 37 59 3 1 18 -13 32 -30z"/>
<path d="M3863 1478 c-5 -7 -31 -58 -57 -113 -26 -55 -51 -107 -57 -115 -34
-55 -110 -224 -106 -234 4 -11 54 -14 236 -15 127 0 231 3 231 8 0 8 -7 22
-51 116 -10 22 -46 103 -80 180 -80 185 -92 204 -116 173z m61 -250 c16 -35
32 -71 37 -80 14 -28 10 -65 -7 -72 -29 -11 -175 6 -181 21 -5 12 51 142 83
191 20 31 32 20 68 -60z"/>
<path d="M613 1763 c-11 -2 -23 -14 -26 -26 -4 -16 -2 -928 2 -1005 1 -10 26
-12 109 -10 l107 3 5 198 c6 233 3 227 102 201 10 -3 53 -77 108 -187 50 -100
98 -189 107 -199 14 -15 34 -18 130 -18 66 0 113 4 113 10 0 5 -43 94 -95 197
-53 103 -95 196 -93 207 2 11 19 28 38 39 52 28 104 82 136 141 25 45 28 62
28 136 0 80 -2 89 -37 151 -39 70 -75 101 -162 141 -48 22 -62 23 -300 24
-137 1 -260 0 -272 -3z m497 -89 c55 -19 98 -44 129 -78 13 -14 27 -24 30 -21
4 2 8 -4 9 -13 1 -9 6 -48 12 -87 10 -67 9 -73 -17 -128 -27 -57 -27 -59 -9
-72 11 -8 16 -21 13 -30 -7 -17 -38 -20 -52 -6 -6 6 -23 4 -44 -5 -32 -13 -33
-15 -16 -28 17 -12 16 -15 -23 -41 -23 -15 -42 -33 -41 -39 1 -24 17 -51 30
-51 7 0 16 -15 20 -33 4 -18 15 -39 24 -46 11 -8 16 -20 12 -29 -3 -9 7 -47
24 -84 32 -71 32 -93 0 -93 -23 0 -43 27 -60 81 -7 20 -21 45 -31 54 -11 10
-20 26 -20 36 0 10 -10 30 -23 46 -13 15 -26 36 -30 45 -3 9 -24 27 -46 40
-22 13 -45 33 -50 45 -6 13 -20 23 -30 23 -11 0 -37 9 -57 20 -34 20 -38 20
-61 5 -23 -15 -26 -15 -38 1 -25 35 -35 -16 -35 -190 0 -90 -3 -171 -6 -180
-10 -25 -41 -19 -48 9 -4 14 -7 97 -7 185 0 139 -2 161 -17 169 -14 8 -15 12
-4 22 17 18 15 39 -3 39 -8 0 -15 2 -15 4 0 2 -3 11 -6 19 -4 11 2 16 18 19
22 3 23 7 24 81 2 70 0 77 -17 77 -33 0 -35 31 -6 56 23 20 27 31 27 81 0 73
17 106 54 113 62 11 341 -1 386 -16z m-470 -284 c0 -5 -4 -10 -10 -10 -5 0
-10 5 -10 10 0 6 5 10 10 10 6 0 10 -4 10 -10z m590 -173 c0 -8 -3 -17 -7 -20
-9 -9 -34 13 -27 24 8 14 34 11 34 -4z m-13 -259 c-3 -8 -6 -5 -6 6 -1 11 2
17 5 13 3 -3 4 -12 1 -19z m19 -55 c-10 -10 -19 5 -10 18 6 11 8 11 12 0 2 -7
1 -15 -2 -18z"/>
<path d="M737 1624 c-4 -4 -7 -27 -7 -51 0 -31 4 -43 15 -43 8 0 19 -9 25 -19
8 -16 6 -20 -12 -23 -18 -3 -22 -10 -24 -60 -3 -46 0 -58 11 -58 10 0 15 -10
15 -30 0 -21 -5 -30 -16 -30 -10 0 -14 -7 -12 -22 3 -20 9 -23 50 -24 40 -1
50 3 64 23 8 14 14 25 12 26 -43 22 -43 21 -43 128 l0 104 55 13 c41 11 74 11
139 4 80 -10 88 -13 118 -46 38 -41 42 -81 15 -135 -29 -58 -55 -70 -160 -73
-55 -2 -91 -7 -90 -13 2 -5 24 -9 50 -7 30 2 55 -2 68 -11 17 -12 27 -12 58
-2 20 7 43 22 50 34 8 12 20 21 27 21 7 0 18 7 25 15 7 8 21 15 31 15 27 0 39
30 34 90 -7 75 -40 130 -95 156 -39 19 -63 22 -220 23 -97 1 -179 -1 -183 -5z
m98 -34 c-3 -5 -13 -10 -21 -10 -8 0 -14 5 -14 10 0 6 9 10 21 10 11 0 17 -4
14 -10z"/>
<path d="M1674 1760 l-29 -5 -3 -500 c-3 -547 -3 -545 51 -531 17 4 27 13 27
25 0 10 2 20 5 23 12 11 5 832 -6 839 -8 5 -8 8 0 13 6 4 11 15 11 25 0 39 21
43 255 45 155 2 230 -1 241 -8 23 -17 7 -46 -25 -46 -15 0 -32 -5 -39 -12 -9
-9 -23 -9 -59 -1 -27 6 -107 11 -179 11 l-132 0 -4 -37 c-3 -20 -2 -61 1 -91
4 -30 4 -93 0 -140 -3 -47 -4 -88 -2 -92 2 -4 83 -7 180 -7 181 1 213 -5 182
-36 -12 -12 -42 -16 -135 -16 -87 -1 -123 -5 -135 -15 -14 -13 -18 -12 -29 1
-19 23 -59 19 -65 -7 -3 -13 -4 -95 -3 -183 l3 -160 135 -2 c74 -1 151 2 170
7 21 6 46 6 65 0 16 -5 43 -12 58 -15 22 -4 28 -10 25 -28 -2 -18 -10 -23 -43
-25 -39 -3 -41 -4 -41 -37 0 -32 3 -35 28 -35 17 0 31 7 38 20 14 25 26 25 33
0 6 -22 41 -27 53 -8 12 18 15 158 4 177 -7 14 -35 16 -208 16 -154 0 -203 3
-215 14 -14 11 -17 32 -17 102 0 78 2 90 20 99 12 6 82 10 176 9 87 -1 160 3
165 8 6 6 9 50 7 99 l-3 89 -167 5 c-201 6 -199 5 -201 109 -1 43 4 76 11 83
8 8 74 12 217 13 112 1 208 4 211 8 11 11 16 170 6 185 -7 10 -76 13 -309 15
-164 1 -313 0 -329 -3z m386 -570 c0 -5 -4 -10 -10 -10 -5 0 -10 5 -10 10 0 6
5 10 10 10 6 0 10 -4 10 -10z m180 -320 c0 -5 -4 -10 -10 -10 -5 0 -10 5 -10
10 0 6 5 10 10 10 6 0 10 -4 10 -10z"/>
<path d="M5215 1763 c-56 -6 -37 14 -248 -263 -56 -74 -110 -136 -119 -138
-27 -5 -33 35 -30 209 3 135 0 168 -11 178 -10 8 -48 11 -118 9 l-104 -3 0
-515 0 -515 104 -3 c69 -2 108 1 118 9 12 10 14 47 11 210 -3 206 2 238 36
210 8 -6 67 -83 132 -169 65 -86 139 -181 164 -209 l45 -53 118 0 c94 0 119 3
123 15 6 16 -69 130 -92 139 -8 3 -14 12 -14 20 0 8 -11 23 -25 34 -14 11 -25
22 -25 25 0 12 -121 181 -138 193 -31 21 -85 112 -78 130 7 18 114 159 254
331 90 113 105 140 80 147 -23 7 -142 13 -183 9z m-502 -105 c11 -18 14 -63
12 -203 -1 -106 2 -185 8 -192 6 -9 5 -23 -3 -42 -14 -34 -13 -292 2 -332 11
-31 -13 -89 -36 -89 -22 0 -25 31 -26 305 -3 513 -1 575 15 575 8 0 21 -10 28
-22z m523 7 c6 -14 -16 -45 -133 -196 -27 -33 -53 -70 -60 -81 -6 -12 -22 -30
-36 -42 -13 -12 -34 -37 -45 -56 l-21 -36 47 -56 c42 -51 106 -130 200 -251
88 -112 92 -120 81 -134 -10 -11 -15 -11 -30 -1 -18 13 -219 253 -246 296 -9
12 -24 22 -34 22 -13 0 -19 7 -19 24 0 14 -11 33 -25 44 -15 12 -25 30 -25 46
0 25 39 98 65 121 6 6 32 40 58 77 26 37 51 68 55 70 5 2 28 30 52 63 75 105
103 126 116 90z"/>
<path d="M1882 761 c-6 -16 -8 -32 -5 -35 8 -8 108 -8 116 0 10 10 -17 44 -35
44 -9 0 -20 5 -23 10 -13 21 -43 10 -53 -19z"/>
<path d="M2030 780 c0 -5 10 -10 23 -10 12 0 30 -9 40 -20 23 -28 34 -25 39
10 l5 30 -54 0 c-29 0 -53 -4 -53 -10z"/>
</g>
</svg>
